# xmcd
#
# Track frame offsets:
#	150
#	10866
#	24037
#	38707
#	49876
#	60171
#	73536
#	83430
#	99016
#	108906
#	119405
#	130793
#	142911
#	154178
#	165236
#
# Disc length: 2353 seconds
#
# Revision: 1
# Processed by: cddbd v1.5.1PL0 Copyright (c) Steve Scherf et al.
# Submitted via: audiograbber 1.83.01
#
DISCID=a1092f0f
DTITLE=Charley Pride - A Tribute To Jim Reeves
DYEAR=2001
DGENRE=
TTITLE0=Is It Really Over
TTITLE1=I Love You Because
TTITLE2=Guilty
TTITLE3=He'll Have To Go
TTITLE4=Blue Boy
TTITLE5=Four Walls
TTITLE6=There's a Heartache
TTITLE7=Blue Side Of Lonesome
TTITLE8=I'm Gonna Change Everything
TTITLE9=I Won't Come In
TTITLE10=I Guess I'm Crazy
TTITLE11=Missing You
TTITLE12=Welcome To My World
TTITLE13=Am I Losing You
TTITLE14=Adios Amigo
EXTD=
EXTT0=
EXTT1=
EXTT2=
EXTT3=
EXTT4=
EXTT5=
EXTT6=
EXTT7=
EXTT8=
EXTT9=
EXTT10=
EXTT11=
EXTT12=
EXTT13=
EXTT14=
PLAYORDER=
